<?xml version="1.0" encoding="UTF-8"?>
<svg width="700pt" height="700pt" version="1.1" viewBox="0 0 700 700" xmlns="http://www.w3.org/2000/svg" xmlns:xlink="http://www.w3.org/1999/xlink">
 <g>
  <path d="m606.96 203.47c-2.793-38.402-19.672-73.77-47.512-99.594-27.336-25.352-63.367-40.164-101.46-41.703-37.984-1.5273-75.133 9.9531-107.98 33.316-32.852-23.355-70.004-34.848-107.99-33.312-38.09 1.5391-74.125 16.352-101.46 41.703-27.84 25.816-44.711 61.188-47.508 99.59-3.1094 42.719 10.977 88.789 40.738 133.23 49.559 74.008 134.67 121.34 210.55 159.9 1.7773 0.90234 3.7227 1.3594 5.6641 1.3594 1.9414 0 3.8867-0.45313 5.6641-1.3594 75.879-38.559 160.99-85.895 210.55-159.9 29.77-44.445 43.859-90.508 40.754-133.23zm-61.523 119.31c-45.02 67.23-123.84 112.04-195.43 148.64-71.594-36.598-150.41-81.414-195.43-148.64-60.242-89.957-37.953-162.59 2.9961-200.57 22.535-20.902 55.324-35.352 91.594-35.352 29.941 0 62.266 9.8594 93.125 34.066 4.5312 3.5586 10.91 3.5586 15.441 0 68.234-53.543 143.58-36.871 184.72 1.2852 40.945 37.98 63.234 110.61 2.9922 200.57z"/>
  <use x="70" y="647.5" xlink:href="#t"/>
  <use x="91.40625" y="647.5" xlink:href="#c"/>
  <use x="105.789062" y="647.5" xlink:href="#b"/>
  <use x="125.570312" y="647.5" xlink:href="#m"/>
  <use x="145.253906" y="647.5" xlink:href="#d"/>
  <use x="159.195312" y="647.5" xlink:href="#b"/>
  <use x="178.976562" y="647.5" xlink:href="#l"/>
  <use x="210.007812" y="647.5" xlink:href="#k"/>
  <use x="230.886719" y="647.5" xlink:href="#j"/>
  <use x="260.054688" y="647.5" xlink:href="#i"/>
  <use x="279.976562" y="647.5" xlink:href="#s"/>
  <use x="299.375" y="647.5" xlink:href="#a"/>
  <use x="329.566406" y="647.5" xlink:href="#h"/>
  <use x="350.941406" y="647.5" xlink:href="#g"/>
  <use x="371.707031" y="647.5" xlink:href="#c"/>
  <use x="386.089844" y="647.5" xlink:href="#f"/>
  <use x="406.855469" y="647.5" xlink:href="#a"/>
  <use x="426.894531" y="647.5" xlink:href="#e"/>
  <use x="457.285156" y="647.5" xlink:href="#a"/>
  <use x="70" y="676.667969" xlink:href="#r"/>
  <use x="82.6875" y="676.667969" xlink:href="#c"/>
  <use x="97.074219" y="676.667969" xlink:href="#a"/>
  <use x="117.109375" y="676.667969" xlink:href="#e"/>
  <use x="157.65625" y="676.667969" xlink:href="#d"/>
  <use x="171.597656" y="676.667969" xlink:href="#q"/>
  <use x="192.363281" y="676.667969" xlink:href="#b"/>
  <use x="222.300781" y="676.667969" xlink:href="#p"/>
  <use x="246.710938" y="676.667969" xlink:href="#a"/>
  <use x="266.746094" y="676.667969" xlink:href="#g"/>
  <use x="287.511719" y="676.667969" xlink:href="#f"/>
  <use x="318.429688" y="676.667969" xlink:href="#h"/>
  <use x="339.804688" y="676.667969" xlink:href="#c"/>
  <use x="354.191406" y="676.667969" xlink:href="#a"/>
  <use x="374.226562" y="676.667969" xlink:href="#o"/>
  <use x="384.226562" y="676.667969" xlink:href="#b"/>
  <use x="404.007812" y="676.667969" xlink:href="#n"/>
  <use x="421.296875" y="676.667969" xlink:href="#d"/>
 </g>
</svg>
